<svg xmlns="http://www.w3.org/2000/svg" xmlns:xlink="http://www.w3.org/1999/xlink" viewBox="0 0 411.97 165.18"><defs><style>.cls-1{fill:none;}.cls-2{clip-path:url(#clip-path);}.cls-3{fill:url(#Naamloos_verloop_3);}</style><clipPath id="clip-path" transform="translate(-17.25 4.07)"><rect class="cls-1" width="442" height="155"/></clipPath><linearGradient id="Naamloos_verloop_3" x1="17.25" y1="78.52" x2="429.21" y2="78.52" gradientUnits="userSpaceOnUse"><stop offset="0" stop-color="#c4a57d"/><stop offset="1" stop-color="#9d8051"/></linearGradient></defs><title>pattern</title><g id="Layer_2" data-name="Layer 2"><g id="Laag_1" data-name="Laag 1"><g class="cls-2"><path class="cls-3" d="M418.34,161.11l-13.76-20.6a37.93,37.93,0,0,1-.39-41.5L419.9,74.47a34.1,34.1,0,0,0,.36-36L395.5-2l3.41-2.09,24.77,40.45a38.13,38.13,0,0,1-.41,40.24l-15.71,24.55a33.91,33.91,0,0,0,.35,37.12l13.75,20.6Zm-30,0-13.76-20.6a37.93,37.93,0,0,1-.39-41.5L389.9,74.47a34.1,34.1,0,0,0,.36-36L365.5-2l3.41-2.09,24.77,40.45a38.13,38.13,0,0,1-.41,40.24l-15.71,24.55a33.91,33.91,0,0,0,.35,37.12l13.75,20.6Zm-30,0-13.76-20.6a37.93,37.93,0,0,1-.39-41.5L359.9,74.47a34.1,34.1,0,0,0,.36-36L335.5-2l3.41-2.09,24.77,40.45a38.13,38.13,0,0,1-.41,40.24l-15.71,24.55a33.91,33.91,0,0,0,.35,37.12l13.75,20.6Zm-56.21,0-3.33-2.22,13.75-20.6a33.93,33.93,0,0,0,.36-37.12L297.19,76.62a38.15,38.15,0,0,1-.4-40.24L321.55-4.07,325-2,300.2,38.47a34.12,34.12,0,0,0,.36,36L316.27,99a37.93,37.93,0,0,1-.39,41.5Zm-30,0-3.33-2.22,13.75-20.6a33.93,33.93,0,0,0,.36-37.12L267.19,76.62a38.15,38.15,0,0,1-.4-40.24L291.55-4.07,295-2,270.2,38.47a34.12,34.12,0,0,0,.36,36L286.27,99a37.93,37.93,0,0,1-.39,41.5Zm-30,0-3.33-2.22,13.75-20.6a33.93,33.93,0,0,0,.36-37.12L237.19,76.62a38.15,38.15,0,0,1-.4-40.24L261.55-4.07,265-2,240.2,38.47a34.12,34.12,0,0,0,.36,36L256.27,99a37.93,37.93,0,0,1-.39,41.5Zm-35.79,0-13.76-20.6a37.93,37.93,0,0,1-.39-41.5L207.9,74.47a34.1,34.1,0,0,0,.36-36L183.5-2l3.41-2.09,24.77,40.45a38.13,38.13,0,0,1-.41,40.24l-15.71,24.55a33.91,33.91,0,0,0,.35,37.12l13.75,20.6Zm-30,0-13.76-20.6a37.93,37.93,0,0,1-.39-41.5L177.9,74.47a34.1,34.1,0,0,0,.36-36L153.5-2l3.41-2.09,24.77,40.45a38.13,38.13,0,0,1-.41,40.24l-15.71,24.55a33.91,33.91,0,0,0,.35,37.12l13.75,20.6Zm-30,0-13.76-20.6a37.93,37.93,0,0,1-.39-41.5L147.9,74.47a34.1,34.1,0,0,0,.36-36L123.5-2l3.41-2.09,24.77,40.45a38.13,38.13,0,0,1-.41,40.24l-15.71,24.55a33.91,33.91,0,0,0,.35,37.12l13.75,20.6Zm-58.21,0-3.33-2.22,13.75-20.6a33.93,33.93,0,0,0,.36-37.12L83.19,76.62a38.15,38.15,0,0,1-.4-40.24L107.55-4.07,111-2,86.2,38.47a34.12,34.12,0,0,0,.36,36L102.27,99a37.93,37.93,0,0,1-.39,41.5Zm-30,0-3.33-2.22,13.75-20.6a33.93,33.93,0,0,0,.36-37.12L53.19,76.62a38.15,38.15,0,0,1-.4-40.24L77.55-4.07,81-2,56.2,38.47a34.12,34.12,0,0,0,.36,36L72.27,99a37.93,37.93,0,0,1-.39,41.5Zm-30,0-3.33-2.22,13.75-20.6a33.93,33.93,0,0,0,.36-37.12L23.19,76.62a38.15,38.15,0,0,1-.4-40.24L47.55-4.07,51-2,26.2,38.47a34.12,34.12,0,0,0,.36,36L42.27,99a37.93,37.93,0,0,1-.39,41.5Z" transform="translate(-17.25 4.07)"/></g></g></g></svg>